PathFileType	4	(X/Y/Z)	./resultDataOpenSim/trcMotMarkerGrf/sub09/qtm-04-04.trc
DataRate	CameraRate	NumFrames	NumMarkers	Units	OrigDataRate	OrigDataStartFrame	OrigNumFrames
250.000000	250.000000	11	24	m	250.000000	187	496
Frame#	Time	L.Toe.Tip			R.Toe.Tip			L.Ankle.Lat			R.Ankle.Lat			L.Ankle.Med			R.Ankle.Med			L.Heel			R.Heel			L.Knee.Lat			R.Knee.Lat			L.Knee.Med			R.Knee.Med			L.Thigh.Upper			R.Thigh.Upper			L.ASIS			R.ASIS			V.Sacral			L.Acromium			R.Acromium			C7			L.Elbow			R.Elbow			L.Wrist.Lat			R.Wrist.Lat
		X1	Y1	Z1	X2	Y2	Z2	X3	Y3	Z3	X4	Y4	Z4	X5	Y5	Z5	X6	Y6	Z6	X7	Y7	Z7	X8	Y8	Z8	X9	Y9	Z9	X10	Y10	Z10	X11	Y11	Z11	X12	Y12	Z12	X13	Y13	Z13	X14	Y14	Z14	X15	Y15	Z15	X16	Y16	Z16	X17	Y17	Z17	X18	Y18	Z18	X19	Y19	Z19	X20	Y20	Z20	X21	Y21	Z21	X22	Y22	Z22	X23	Y23	Z23	X24	Y24	Z24

187	0.744	0.13002717	-0.034977198	0.024881229	-0.60424203	0.062170193	0.092144164	-0.017365821	-0.0027857628	-0.029460601	-0.64295501	0.20723844	0.13667168	-0.0023953594	0.019339564	0.066144999	-0.59349852	0.20420024	0.052036853	-0.09028632	-0.036241462	0.010983526	-0.6848166	0.25152098	0.076274367	0.035507623	0.40816241	-0.092579565	-0.23102179	0.3877697	0.21383574	0.033981242	0.41364462	0.031844614	-0.22358332	0.35946327	0.086575584	-0.14251905	0.79240094	-0.14338834	-0.19362194	0.7765714	0.22250707	-0.076868271	0.88109898	-0.075071942	-0.086833922	0.86287778	0.16567331	-0.24822437	0.92144855	0.035683283	-0.12356311	1.322106	-0.12944568	-0.147641	1.3340101	0.2034235	-0.20417311	1.3766362	0.03422177	-0.26341587	0.98611227	-0.17965946	-0.26459424	0.97914413	0.28321418	-0.17955608	0.74552283	-0.23737348	-0.062944012	0.79169248	0.2692275
188	0.748	0.12993629	-0.034823869	0.024667857	-0.59792841	0.064304463	0.093360036	-0.017137911	-0.0030022589	-0.029589705	-0.63156156	0.21114114	0.13789928	-0.0021831351	0.01936102	0.065951499	-0.58212159	0.20711608	0.053060249	-0.090333622	-0.036354221	0.011015071	-0.67202887	0.25699065	0.07761289	0.038632254	0.40668613	-0.092478376	-0.21906916	0.38615788	0.2142439	0.038695827	0.41254036	0.030907081	-0.21108106	0.35829855	0.086962088	-0.1375041	0.79234587	-0.14360213	-0.18806329	0.77570745	0.22268971	-0.07080392	0.88159034	-0.075370285	-0.081323118	0.86260445	0.16545258	-0.24328039	0.92112244	0.035547533	-0.11672305	1.3222032	-0.12944057	-0.14056596	1.3340401	0.20334145	-0.1975293	1.376741	0.034131465	-0.25564012	0.98569869	-0.17994914	-0.25833297	0.97970809	0.28291515	-0.17049966	0.74542332	-0.23710542	-0.059179412	0.79003336	0.26988004
189	0.752	0.12984119	-0.034665724	0.024454741	-0.59057284	0.066685943	0.094804524	-0.016897228	-0.0032491104	-0.029688526	-0.62000348	0.21479099	0.13917789	-0.0019951552	0.0193305	0.065828296	-0.57050581	0.21002845	0.054019016	-0.090391924	-0.03646239	0.01112048	-0.65909969	0.26234147	0.079025639	0.041530708	0.40531213	-0.092654212	-0.20689004	0.38459089	0.21446128	0.042760119	0.41128387	0.030072988	-0.19881727	0.35749079	0.087427156	-0.13224265	0.79240594	-0.14387099	-0.18253789	0.77496687	0.22288856	-0.064786117	0.88202685	-0.075607611	-0.075825418	0.86247825	0.16538025	-0.2384322	0.92090063	0.035373939	-0.10991356	1.3223983	-0.12942021	-0.13355291	1.3341782	0.20326779	-0.19091351	1.3769516	0.034031278	-0.24793268	0.98535075	-0.18029743	-0.25219044	0.98035777	0.28268537	-0.16136015	0.74546582	-0.23679258	-0.05543237	0.78849903	0.27053594
190	0.756	0.12975184	-0.034551959	0.024261474	-0.58196357	0.069327287	0.096466191	-0.016680984	-0.003512621	-0.029766217	-0.60826759	0.2183021	0.14038715	-0.0018403957	0.019257071	0.065753797	-0.55864751	0.21302522	0.05488843	-0.090458638	-0.036566805	0.011258453	-0.64609597	0.2675155	0.08051792	0.04421657	0.40408369	-0.093166692	-0.19432058	0.38319401	0.21457173	0.046259399	0.41000481	0.02935942	-0.18679973	0.35705527	0.087956458	-0.12678237	0.79261759	-0.14418317	-0.17696415	0.77435542	0.22300889	-0.058813928	0.88241064	-0.075774948	-0.070427315	0.86248922	0.16539223	-0.23362589	0.9208012	0.035151042	-0.10312618	1.3226872	-0.12938585	-0.1266451	1.3344232	0.20319939	-0.18433264	1.3772648	0.033927219	-0.24031962	0.98506934	-0.18075325	-0.24619118	0.98109662	0.28253412	-0.15214932	0.74564383	-0.23643669	-0.051716771	0.78708562	0.27119519
191	0.76	0.12967169	-0.034492411	0.02409389	-0.57204807	0.07218277	0.098323125	-0.01650688	-0.003778558	-0.029833874	-0.59632583	0.22180112	0.14126349	-0.0017138317	0.019155927	0.065705756	-0.54658447	0.21619263	0.05561742	-0.090526565	-0.036663297	0.011391205	-0.63308833	0.27237241	0.081960186	0.046705794	0.4029457	-0.093837923	-0.18134723	0.38217039	0.2146562	0.049338931	0.40884231	0.028807053	-0.17483282	0.35693755	0.088370182	-0.12115364	0.79300948	-0.14451398	-0.17136586	0.77385963	0.22304899	-0.05288209	0.88275858	-0.075861945	-0.065175277	0.86262304	0.1654363	-0.2288046	0.92084324	0.034865783	-0.096355928	1.3230604	-0.12933642	-0.1198695	1.3347703	0.2031357	-0.17778575	1.3776818	0.033813636	-0.23280968	0.98487329	-0.18128281	-0.24034482	0.98192984	0.28248908	-0.14287241	0.74594907	-0.23603682	-0.048069207	0.78577833	0.27185475
192	0.764	0.12959753	-0.034468014	0.02395001	-0.56094689	0.075167079	0.10037087	-0.016374584	-0.0040401175	-0.029894594	-0.58413353	0.22536908	0.14160121	-0.0016068418	0.019042236	0.065668935	-0.5343723	0.2195571	0.056167352	-0.090592327	-0.036747152	0.011491774	-0.62016292	0.27675115	0.083144856	0.049083306	0.4018617	-0.094460455	-0.16815785	0.38166977	0.21470732	0.05217219	0.40790742	0.028463626	-0.1626828	0.35704524	0.08847924	-0.1153466	0.79359457	-0.14485172	-0.16575947	0.77347641	0.22302706	-0.047015555	0.88308963	-0.07587611	-0.059960248	0.86289102	0.16553721	-0.22390579	0.92104791	0.03450239	-0.089607059	1.323505	-0.12926957	-0.1132356	1.3352164	0.20308312	-0.17126745	1.3782046	0.03369572	-0.22538618	0.98479257	-0.18176031	-0.23463707	0.9828514	0.28256626	-0.13352799	0.7463786	-0.23559019	-0.044515055	0.78456609	0.27251027
193	0.768	0.12952664	-0.034458209	0.023831075	-0.54887258	0.078180004	0.10261414	-0.016272482	-0.0042920778	-0.029942896	-0.57164545	0.22898868	0.14152851	-0.0015155906	0.018927097	0.065639106	-0.52203991	0.2230495	0.056542939	-0.090658948	-0.036815186	0.011552236	-0.60736572	0.28052353	0.083915628	0.051468863	0.40084946	-0.094901529	-0.15482875	0.38164174	0.21465502	0.054861252	0.40724198	0.028337369	-0.15026375	0.35733728	0.088268556	-0.10931474	0.79436449	-0.14519953	-0.16011878	0.7732246	0.22294326	-0.041251315	0.883422	-0.075838146	-0.054640192	0.86331895	0.16573977	-0.21886066	0.92143851	0.034042933	-0.082886205	1.3240143	-0.12918298	-0.10674511	1.3357618	0.20305113	-0.16477206	1.3788261	0.033588597	-0.21803473	0.98483386	-0.18212058	-0.22900168	0.98385184	0.28269334	-0.12411484	0.74693319	-0.2350943	-0.041041549	0.78345122	0.27316122
194	0.772	0.12946004	-0.034451771	0.023740769	-0.53601736	0.081142557	0.10505055	-0.016188111	-0.0045241192	-0.02997129	-0.5588351	0.23255982	0.14146869	-0.0014411073	0.018814812	0.065623214	-0.50956696	0.22650339	0.056788382	-0.09073023	-0.036864428	0.011582569	-0.59466711	0.28366012	0.084250728	0.053939148	0.39996604	-0.095119158	-0.14134178	0.38190199	0.21447476	0.057351973	0.40679836	0.028366324	-0.13761218	0.35784574	0.087864047	-0.10302602	0.79528703	-0.14555848	-0.15441434	0.77313715	0.22279147	-0.035590855	0.88378123	-0.075762642	-0.049224732	0.86391104	0.16601725	-0.21360475	0.92203594	0.033473908	-0.076192644	1.3245879	-0.12907328	-0.10039606	1.3364071	0.20304532	-0.15830243	1.3795352	0.033501785	-0.2107664	0.98496366	-0.18245567	-0.22337195	0.98493448	0.28275994	-0.11463797	0.7476122	-0.23455035	-0.037619692	0.78244688	0.27381043
195	0.776	0.1294006	-0.034445494	0.023679707	-0.52248709	0.084026513	0.10769213	-0.016113911	-0.0047215594	-0.029975486	-0.54571997	0.23596987	0.14172253	-0.0013852184	0.018703501	0.065637944	-0.49689411	0.22970228	0.05695653	-0.09080531	-0.03689159	0.011598535	-0.58197305	0.28627763	0.084230267	0.056473377	0.39926774	-0.095136961	-0.12784375	0.38233876	0.21420731	0.059524844	0.40647955	0.028472191	-0.12480622	0.35861939	0.08738121	-0.096574799	0.79631176	-0.14589475	-0.14863946	0.77324758	0.22257338	-0.029984567	0.88420408	-0.075646665	-0.043851655	0.86464353	0.16628298	-0.20811013	0.92284635	0.032802094	-0.069519339	1.325227	-0.12893616	-0.094180738	1.3371493	0.20306714	-0.1518721	1.3803281	0.033431933	-0.20359302	0.98515224	-0.18286035	-0.21776317	0.9861087	0.28275206	-0.10511412	0.74841235	-0.2339648	-0.034230758	0.78157061	0.2744618
196	0.78	0.12935037	-0.034440488	0.023644508	-0.50833287	0.086834463	0.11058184	-0.016045161	-0.0048716244	-0.029953786	-0.53238192	0.23912272	0.14221474	-0.0013531821	0.018590019	0.065705971	-0.48395787	0.23246673	0.057077847	-0.090879294	-0.036895379	0.011611182	-0.56918364	0.28857448	0.083985411	0.058948909	0.39877292	-0.095019181	-0.11447021	0.38296743	0.21388633	0.061352785	0.4062075	0.028634743	-0.11195709	0.35966211	0.086851211	-0.090268592	0.79737962	-0.14612027	-0.14278927	0.77358447	0.22229626	-0.024374988	0.8847237	-0.075483163	-0.038620063	0.86549108	0.16647081	-0.20242893	0.923846	0.032070751	-0.062860075	1.3259329	-0.1287673	-0.088088197	1.3379821	0.20311898	-0.14549456	1.3812066	0.033371366	-0.19650094	0.98540813	-0.18330078	-0.21225861	0.98736167	0.28277283	-0.09557335	0.74932624	-0.23334676	-0.0308591	0.78083863	0.27512151
197	0.784	0.12930998	-0.034439052	0.023629847	-0.49362544	0.089555572	0.11374451	-0.015976761	-0.0049706174	-0.029904356	-0.5189431	0.24192686	0.14269713	-0.001363185	0.01847385	0.065842644	-0.47072084	0.23472294	0.057152036	-0.090947078	-0.03687715	0.01162696	-0.55625508	0.29066578	0.083693578	0.061226812	0.39846097	-0.094840513	-0.10120642	0.38382668	0.21350366	0.062895252	0.40594336	0.028874796	-0.099155709	0.36094254	0.086266561	-0.084513233	0.79843538	-0.1461425	-0.13684223	0.77416549	0.22197603	-0.018743795	0.8853522	-0.075285101	-0.033512711	0.86644594	0.16657249	-0.19669629	0.92498415	0.031348204	-0.056213398	1.3267061	-0.12856274	-0.082110597	1.3388999	0.20320468	-0.13917531	1.3821737	0.033320212	-0.18946669	0.98574914	-0.18370901	-0.20691832	0.98866193	0.28291244	-0.086041925	0.75034261	-0.23270298	-0.027480844	0.7802609	0.27579871
